<svg width="24" height="24" viewBox="0 0 40 41" fill="none" xmlns="http://www.w3.org/2000/svg">
  <path d="M20 0C8.954 0 0 8.954 0 20C0 31.046 8.954 40 20 40C31.046 40 40 31.046 40 20C40 8.954 31.046 0 20 0ZM20 36.4C10.794 36.4 3.6 29.206 3.6 20C3.6 10.794 10.794 3.6 20 3.6C29.206 3.6 36.4 10.794 36.4 20C36.4 29.206 29.206 36.4 20 36.4Z" fill="white"/>
  <path d="M19.9978 26.7284L11.5942 18.3248L13.3938 16.5252L18.1422 21.2736L18.1422 7.6L21.8535 7.6L21.8535 21.2736L26.602 16.5252L28.4016 18.3248L19.9978 26.7284Z" fill="white"/>
</svg>
